<?xml version="1.0" encoding="UTF-8" standalone="no"?>
<!-- Generator: IcoMoon.io -->

<svg
   xmlns:dc="http://purl.org/dc/elements/1.1/"
   xmlns:cc="http://creativecommons.org/ns#"
   xmlns:rdf="http://www.w3.org/1999/02/22-rdf-syntax-ns#"
   xmlns:svg="http://www.w3.org/2000/svg"
   xmlns="http://www.w3.org/2000/svg"
   xmlns:sodipodi="http://sodipodi.sourceforge.net/DTD/sodipodi-0.dtd"
   xmlns:inkscape="http://www.inkscape.org/namespaces/inkscape"
   width="512"
   height="512"
   viewBox="0 0 512 512"
   fill="#000000"
   id="svg3162"
   version="1.1"
   inkscape:version="0.48.2 r9819"
   sodipodi:docname="android.svg">
  <metadata
     id="metadata3172">
    <rdf:RDF>
      <cc:Work
         rdf:about="">
        <dc:format>image/svg+xml</dc:format>
        <dc:type
           rdf:resource="http://purl.org/dc/dcmitype/StillImage" />
      </cc:Work>
    </rdf:RDF>
  </metadata>
  <defs
     id="defs3170" />
  <sodipodi:namedview
     pagecolor="#ffffff"
     bordercolor="#666666"
     borderopacity="1"
     objecttolerance="10"
     gridtolerance="10"
     guidetolerance="10"
     inkscape:pageopacity="0"
     inkscape:pageshadow="2"
     inkscape:window-width="640"
     inkscape:window-height="480"
     id="namedview3168"
     showgrid="false"
     inkscape:zoom="0.4609375"
     inkscape:cx="256"
     inkscape:cy="256"
     inkscape:window-x="0"
     inkscape:window-y="0"
     inkscape:window-maximized="0"
     inkscape:current-layer="svg3162" />
  <g
     id="g3164"
     transform="translate(58.576271,-21.694915)">
    <path
       d="m 140.617,138.24 q 4.608,0 7.68,-3.072 3.072,-3.072 3.072,-7.68 0,-4.608 -3.072,-7.68 -3.072,-3.072 -7.68,-3.072 -4.608,0 -7.68,3.072 -3.072,3.072 -3.072,7.68 0,4.608 3.072,7.68 3.072,3.072 7.68,3.072 z m 120.32,0 q 4.608,0 7.68,-3.072 3.072,-3.072 3.072,-7.68 0,-4.608 -3.072,-7.68 -3.072,-3.072 -7.68,-3.072 -4.608,0 -7.68,3.072 -3.072,3.072 -3.072,7.68 0,4.608 3.072,7.68 3.072,3.072 7.68,3.072 z M 29.001,190.976 q 11.776,0 20.48,8.704 8.704,8.704 8.704,20.48 l 0,122.88 q 0,12.288 -8.192,20.992 -8.192,8.704 -20.48,8.704 -12.288,0 -20.992,-8.704 -8.704,-8.704 -8.704,-20.992 l 0,-122.88 q 0,-11.776 8.704,-20.48 8.704,-8.704 20.992,-8.704 z m 302.592,5.632 0,190.464 q 0,13.312 -9.216,22.528 -9.216,9.216 -22.016,9.216 l -21.504,0 0,65.024 q 0,12.288 -8.704,20.992 -8.704,8.704 -20.992,8.704 -12.288,0 -20.992,-8.704 -8.704,-8.704 -8.704,-20.992 l 0,-65.024 -39.424,0 0,65.024 q 0,12.288 -8.704,20.992 -8.704,8.704 -20.992,8.704 -11.776,0 -20.48,-8.704 -8.704,-8.704 -8.704,-20.992 l -0.512,-65.024 -20.992,0 q -13.312,0 -22.528,-9.216 -9.216,-9.216 -9.216,-22.528 l 0,-190.464 262.144,0 z M 265.545,80.896 q 30.72,15.872 48.64,44.032 17.92,28.16 18.432,61.44 l -264.192,0 q 0,-33.28 18.432,-61.44 18.432,-28.16 49.152,-44.032 L 115.529,43.52 q -2.048,-3.584 1.536,-5.632 3.584,-1.536 5.632,1.536 l 20.48,37.888 q 27.136,-11.776 57.344,-11.776 30.208,0 57.344,11.776 l 20.48,-37.888 q 2.048,-3.584 5.632,-1.536 3.584,2.048 1.536,5.632 z m 136.192,139.264 0,122.88 q 0,12.288 -8.704,20.992 -8.704,8.704 -20.992,8.704 -11.776,0 -20.48,-8.704 -8.704,-8.704 -8.704,-20.992 l 0,-122.88 q 0,-12.288 8.704,-20.48 8.704,-8.192 20.48,-8.192 12.288,0 20.992,8.192 8.704,8.192 8.704,20.48 z"
       id="path3166"
       inkscape:connector-curvature="0" />
  </g>
</svg>
