<?xml version="1.0" encoding="UTF-8" standalone="no"?>
<svg xmlns="http://www.w3.org/2000/svg" width="512" height="512" viewBox="0 0 512 512" fill="#000000" version="1.1">
  <g transform="translate(59.898305,19.355932)">
    <path d="m 397.641,347.136 q -11.264,35.84 -35.328,71.68 -36.864,55.808 -73.216,55.808 -13.824,0 -39.936,-9.216 -24.576,-9.216 -43.008,-9.216 -17.408,0 -40.448,9.216 -23.04,9.728 -37.888,9.728 -43.52,0 -86.016,-74.24 -41.984,-74.752 -41.984,-143.872 0,-65.024 32.256,-107.008 31.744,-40.96 80.896,-40.96 20.48,0 50.688,8.704 29.696,8.704 39.424,8.704 12.8,0 40.96,-9.728 29.184,-9.728 49.664,-9.728 33.792,0 60.928,18.432 14.848,10.24 29.696,28.672 -22.528,18.944 -32.768,33.792 -18.432,26.624 -18.432,59.392 0,35.328 19.968,63.488 19.968,28.16 45.056,35.84 z M 290.121,11.776 q 0,17.408 -8.192,38.912 -8.704,21.504 -26.624,39.424 -15.36,15.36 -30.72,20.48 -10.752,3.072 -29.696,4.608 1.024,-42.496 22.528,-73.216 20.992,-30.72 71.68,-42.496 0.512,1.024 0.512,3.072 0,2.048 0.512,3.072 0,1.024 0,3.072 0,2.048 0,3.072 z" />
  </g>
</svg>
