<?xml version="1.0" encoding="UTF-8" standalone="no"?>
<!-- Generator: IcoMoon.io -->

<svg
   xmlns:dc="http://purl.org/dc/elements/1.1/"
   xmlns:cc="http://creativecommons.org/ns#"
   xmlns:rdf="http://www.w3.org/1999/02/22-rdf-syntax-ns#"
   xmlns:svg="http://www.w3.org/2000/svg"
   xmlns="http://www.w3.org/2000/svg"
   xmlns:sodipodi="http://sodipodi.sourceforge.net/DTD/sodipodi-0.dtd"
   xmlns:inkscape="http://www.inkscape.org/namespaces/inkscape"
   width="512"
   height="512"
   viewBox="0 0 512 512"
   fill="#000000"
   id="svg3247"
   version="1.1"
   inkscape:version="0.48.2 r9819"
   sodipodi:docname="apple.svg">
  <metadata
     id="metadata3257">
    <rdf:RDF>
      <cc:Work
         rdf:about="">
        <dc:format>image/svg+xml</dc:format>
        <dc:type
           rdf:resource="http://purl.org/dc/dcmitype/StillImage" />
      </cc:Work>
    </rdf:RDF>
  </metadata>
  <defs
     id="defs3255" />
  <sodipodi:namedview
     pagecolor="#ffffff"
     bordercolor="#666666"
     borderopacity="1"
     objecttolerance="10"
     gridtolerance="10"
     guidetolerance="10"
     inkscape:pageopacity="0"
     inkscape:pageshadow="2"
     inkscape:window-width="640"
     inkscape:window-height="480"
     id="namedview3253"
     showgrid="false"
     inkscape:zoom="0.4609375"
     inkscape:cx="256"
     inkscape:cy="256"
     inkscape:window-x="0"
     inkscape:window-y="0"
     inkscape:window-maximized="0"
     inkscape:current-layer="svg3247" />
  <g
     id="g3249"
     transform="translate(59.898305,19.355932)">
    <path
       d="m 397.641,347.136 q -11.264,35.84 -35.328,71.68 -36.864,55.808 -73.216,55.808 -13.824,0 -39.936,-9.216 -24.576,-9.216 -43.008,-9.216 -17.408,0 -40.448,9.216 -23.04,9.728 -37.888,9.728 -43.52,0 -86.016,-74.24 -41.984,-74.752 -41.984,-143.872 0,-65.024 32.256,-107.008 31.744,-40.96 80.896,-40.96 20.48,0 50.688,8.704 29.696,8.704 39.424,8.704 12.8,0 40.96,-9.728 29.184,-9.728 49.664,-9.728 33.792,0 60.928,18.432 14.848,10.24 29.696,28.672 -22.528,18.944 -32.768,33.792 -18.432,26.624 -18.432,59.392 0,35.328 19.968,63.488 19.968,28.16 45.056,35.84 z M 290.121,11.776 q 0,17.408 -8.192,38.912 -8.704,21.504 -26.624,39.424 -15.36,15.36 -30.72,20.48 -10.752,3.072 -29.696,4.608 1.024,-42.496 22.528,-73.216 20.992,-30.72 71.68,-42.496 0.512,1.024 0.512,3.072 0,2.048 0.512,3.072 0,1.024 0,3.072 0,2.048 0,3.072 z"
       id="path3251"
       inkscape:connector-curvature="0" />
  </g>
</svg>
