<?xml version="1.0" encoding="UTF-8" standalone="no"?>
<svg xmlns="http://www.w3.org/2000/svg" width="512" height="512" viewBox="0 0 512 512" fill="#000000" version="1.1">
  <g>
    <path d="M 310.784,237.568q0-7.68-5.632-12.8t-12.8-5.632l-73.216,0q-7.68,0-12.8,5.632t-5.632,12.8 5.632,12.8 12.8,5.632l 73.216,0q 7.68,0 12.8-5.632t 5.632-12.8z m 164.352-54.784l0,274.432q0,7.68-5.632,12.8t-12.8,5.632l-402.432,0q-7.68,0-12.8-5.632t-5.632-12.8l0-274.432q0-7.68 5.632-12.8t 12.8-5.632l 402.432,0q 7.68,0 12.8,5.632t 5.632,12.8z m 18.432-128l0,73.216q0,7.68-5.632,12.8t-12.8,5.632l-438.784,0q-7.68,0-12.8-5.632t-5.632-12.8l0-73.216q0-7.68 5.632-12.8t 12.8-5.632l 438.784,0q 7.68,0 12.8,5.632t 5.632,12.8z" />
  </g>
</svg>
