<?xml version="1.0" encoding="UTF-8" standalone="no"?>
<svg xmlns="http://www.w3.org/2000/svg" width="512" height="512" viewBox="0 0 512 512" fill="#000000" version="1.1">
  <g transform="translate(0,16)">
    <path d="m 136.67,272.957 0,102.263 -68.335,0 0,-102.263 68.335,0 z m 102.263,-136.67 0,238.933 -68.335,0 0,-238.933 68.335,0 z m 102.263,68.335 0,170.598 -68.335,0 0,-170.598 68.335,0 z m 102.263,-102.263 0,272.862 -68.335,0 0,-272.862 68.335,0 z m 33.929,298.667 0,-324.471 q 0,-3.345 -2.389,-6.212 -2.389,-2.867 -6.212,-2.389 l -426.735,0 q -3.345,0 -6.212,2.389 -2.867,2.389 -2.389,6.212 l 0,324.471 q 0,3.345 2.389,6.212 2.389,2.867 6.212,2.389 l 426.735,0 q 3.345,0 6.212,-2.389 2.867,-2.389 2.389,-6.212 z m 33.929,-324.471 0,324.471 q 0,17.681 -12.425,30.106 -12.425,12.425 -30.106,12.425 l -426.735,0 q -17.681,0 -30.106,-12.425 Q -0.48,418.707 -0.48,401.026 l 0,-324.471 Q -0.48,58.874 11.945,46.449 24.37,34.024 42.051,34.024 l 426.735,0 q 17.681,0 30.106,12.425 12.425,12.425 12.425,30.106 z" />
  </g>
</svg>
