<?xml version="1.0" encoding="UTF-8" standalone="no"?>
<!-- Generator: IcoMoon.io -->

<svg
   xmlns:dc="http://purl.org/dc/elements/1.1/"
   xmlns:cc="http://creativecommons.org/ns#"
   xmlns:rdf="http://www.w3.org/1999/02/22-rdf-syntax-ns#"
   xmlns:svg="http://www.w3.org/2000/svg"
   xmlns="http://www.w3.org/2000/svg"
   xmlns:sodipodi="http://sodipodi.sourceforge.net/DTD/sodipodi-0.dtd"
   xmlns:inkscape="http://www.inkscape.org/namespaces/inkscape"
   width="512"
   height="512"
   viewBox="0 0 512 512"
   fill="#000000"
   id="svg3363"
   version="1.1"
   inkscape:version="0.48.2 r9819"
   sodipodi:docname="barchart.svg">
  <metadata
     id="metadata3373">
    <rdf:RDF>
      <cc:Work
         rdf:about="">
        <dc:format>image/svg+xml</dc:format>
        <dc:type
           rdf:resource="http://purl.org/dc/dcmitype/StillImage" />
      </cc:Work>
    </rdf:RDF>
  </metadata>
  <defs
     id="defs3371" />
  <sodipodi:namedview
     pagecolor="#ffffff"
     bordercolor="#666666"
     borderopacity="1"
     objecttolerance="10"
     gridtolerance="10"
     guidetolerance="10"
     inkscape:pageopacity="0"
     inkscape:pageshadow="2"
     inkscape:window-width="640"
     inkscape:window-height="480"
     id="namedview3369"
     showgrid="false"
     inkscape:zoom="0.4609375"
     inkscape:cx="256"
     inkscape:cy="256"
     inkscape:window-x="0"
     inkscape:window-y="0"
     inkscape:window-maximized="0"
     inkscape:current-layer="svg3363" />
  <g
     id="g3365"
     transform="translate(0,16)">
    <path
       d="m 136.67,272.957 0,102.263 -68.335,0 0,-102.263 68.335,0 z m 102.263,-136.67 0,238.933 -68.335,0 0,-238.933 68.335,0 z m 102.263,68.335 0,170.598 -68.335,0 0,-170.598 68.335,0 z m 102.263,-102.263 0,272.862 -68.335,0 0,-272.862 68.335,0 z m 33.929,298.667 0,-324.471 q 0,-3.345 -2.389,-6.212 -2.389,-2.867 -6.212,-2.389 l -426.735,0 q -3.345,0 -6.212,2.389 -2.867,2.389 -2.389,6.212 l 0,324.471 q 0,3.345 2.389,6.212 2.389,2.867 6.212,2.389 l 426.735,0 q 3.345,0 6.212,-2.389 2.867,-2.389 2.389,-6.212 z m 33.929,-324.471 0,324.471 q 0,17.681 -12.425,30.106 -12.425,12.425 -30.106,12.425 l -426.735,0 q -17.681,0 -30.106,-12.425 Q -0.48,418.707 -0.48,401.026 l 0,-324.471 Q -0.48,58.874 11.945,46.449 24.37,34.024 42.051,34.024 l 426.735,0 q 17.681,0 30.106,12.425 12.425,12.425 12.425,30.106 z"
       id="path3367"
       inkscape:connector-curvature="0" />
  </g>
</svg>
