<?xml version="1.0" encoding="UTF-8" standalone="no"?>
<!-- Generator: IcoMoon.io -->

<svg
   xmlns:dc="http://purl.org/dc/elements/1.1/"
   xmlns:cc="http://creativecommons.org/ns#"
   xmlns:rdf="http://www.w3.org/1999/02/22-rdf-syntax-ns#"
   xmlns:svg="http://www.w3.org/2000/svg"
   xmlns="http://www.w3.org/2000/svg"
   xmlns:sodipodi="http://sodipodi.sourceforge.net/DTD/sodipodi-0.dtd"
   xmlns:inkscape="http://www.inkscape.org/namespaces/inkscape"
   width="512"
   height="512"
   viewBox="0 0 512 512"
   fill="#000000"
   id="svg3466"
   version="1.1"
   inkscape:version="0.48.2 r9819"
   sodipodi:docname="brush.svg">
  <metadata
     id="metadata3476">
    <rdf:RDF>
      <cc:Work
         rdf:about="">
        <dc:format>image/svg+xml</dc:format>
        <dc:type
           rdf:resource="http://purl.org/dc/dcmitype/StillImage" />
      </cc:Work>
    </rdf:RDF>
  </metadata>
  <defs
     id="defs3474" />
  <sodipodi:namedview
     pagecolor="#ffffff"
     bordercolor="#666666"
     borderopacity="1"
     objecttolerance="10"
     gridtolerance="10"
     guidetolerance="10"
     inkscape:pageopacity="0"
     inkscape:pageshadow="2"
     inkscape:window-width="640"
     inkscape:window-height="480"
     id="namedview3472"
     showgrid="false"
     inkscape:zoom="0.4609375"
     inkscape:cx="256"
     inkscape:cy="256"
     inkscape:window-x="0"
     inkscape:window-y="0"
     inkscape:window-maximized="0"
     inkscape:current-layer="svg3466" />
  <g
     id="g3468"
     transform="translate(8,0)">
    <path
       d="m 60.416,348.16 q 19.456,-17.408 43.52,-14.848 24.064,2.56 44.544,23.04 21.504,20.48 24.576,44.544 3.072,24.064 -15.36,42.496 Q 113.664,486.4 40.96,495.616 -2.048,501.76 0,488.448 q 0,-2.048 3.072,-5.12 26.624,-30.72 32.768,-74.24 6.144,-43.52 24.576,-60.928 z M 490.496,17.408 Q 503.808,30.72 414.72,144.384 325.632,258.048 265.216,317.44 q -19.456,19.456 -63.488,53.248 -4.096,3.072 -8.192,-4.096 -9.216,-17.408 -24.576,-32.768 -16.384,-16.384 -33.792,-24.576 -8.192,-3.072 -4.096,-8.192 Q 163.84,258.048 184.32,238.592 244.736,179.2 360.448,91.648 476.16,4.096 490.496,17.408 z"
       id="path3470"
       inkscape:connector-curvature="0" />
  </g>
</svg>
