<?xml version="1.0" encoding="UTF-8" standalone="no"?>
<svg xmlns="http://www.w3.org/2000/svg" width="512" height="512" viewBox="0 0 512 512" fill="#000000" version="1.1">
  <g transform="translate(8,0)">
    <path d="m 60.416,348.16 q 19.456,-17.408 43.52,-14.848 24.064,2.56 44.544,23.04 21.504,20.48 24.576,44.544 3.072,24.064 -15.36,42.496 Q 113.664,486.4 40.96,495.616 -2.048,501.76 0,488.448 q 0,-2.048 3.072,-5.12 26.624,-30.72 32.768,-74.24 6.144,-43.52 24.576,-60.928 z M 490.496,17.408 Q 503.808,30.72 414.72,144.384 325.632,258.048 265.216,317.44 q -19.456,19.456 -63.488,53.248 -4.096,3.072 -8.192,-4.096 -9.216,-17.408 -24.576,-32.768 -16.384,-16.384 -33.792,-24.576 -8.192,-3.072 -4.096,-8.192 Q 163.84,258.048 184.32,238.592 244.736,179.2 360.448,91.648 476.16,4.096 490.496,17.408 z" />
  </g>
</svg>
