<?xml version="1.0" encoding="UTF-8" standalone="no"?>
<svg xmlns="http://www.w3.org/2000/svg" width="512" height="512" viewBox="0 0 512 512" fill="#000000" version="1.1">
  <g transform="translate(19.694915,-0.512)">
    <path d="m 36.206,475.648 82.432,0 0,-82.432 -82.432,0 0,82.432 z m 100.352,0 91.648,0 0,-82.432 -91.648,0 0,82.432 z M 36.206,375.296 l 82.432,0 0,-91.648 -82.432,0 0,91.648 z m 100.352,0 91.648,0 0,-91.648 -91.648,0 0,91.648 z M 36.206,265.728 l 82.432,0 0,-82.432 -82.432,0 0,82.432 z m 210.432,210.432 91.648,0 0,-82.432 -91.648,0 0,82.432 z M 137.07,265.728 l 91.648,0 0,-82.432 -91.648,0 0,82.432 z m 219.648,210.432 82.432,0 0,-82.432 -82.432,0 0,82.432 z M 247.15,375.808 l 91.648,0 0,-91.648 -91.648,0 0,91.648 z m -100.352,-246.784 0,-82.432 q 0,-3.584 -2.56,-6.656 -2.56,-3.072 -6.656,-2.56 l -18.432,0 q -3.584,0 -6.656,2.56 -3.072,2.56 -2.56,6.656 l 0,82.432 q 0,3.584 2.56,6.656 2.56,3.072 6.656,2.56 l 18.432,0 q 3.584,0 6.656,-2.56 3.072,-2.56 2.56,-6.656 z m 210.432,246.784 82.432,0 0,-91.648 -82.432,0 0,91.648 z M 247.662,266.24 l 91.648,0 0,-82.432 -91.648,0 0,82.432 z m 109.568,0 82.432,0 0,-82.432 -82.432,0 0,82.432 z m 9.216,-137.216 0,-82.432 q 0,-3.584 -2.56,-6.656 -2.56,-3.072 -6.656,-2.56 l -18.432,0 q -3.584,0 -6.656,2.56 -3.072,2.56 -2.56,6.656 l 0,82.432 q 0,3.584 2.56,6.656 2.56,3.072 6.656,2.56 l 18.432,0 q 3.584,0 6.656,-2.56 3.072,-2.56 2.56,-6.656 z m 109.568,-18.432 0,365.568 q 0,14.848 -10.752,25.6 -10.752,10.752 -25.6,10.752 l -402.432,0 q -14.848,0 -25.6,-10.752 Q 0.878,491.008 0.878,476.16 l 0,-365.568 q 0,-14.848 10.752,-25.6 Q 22.382,74.24 37.23,74.24 l 36.352,0 0,-27.648 q 0,-18.944 13.312,-32.256 Q 100.206,1.024 119.15,1.024 l 18.432,0 q 18.944,0 32.256,13.312 13.312,13.312 13.312,32.256 l 0,27.648 109.568,0 0,-27.648 q 0,-18.944 13.312,-32.256 13.312,-13.312 32.256,-13.312 l 18.432,0 q 18.944,0 32.256,13.312 13.312,13.312 13.312,32.256 l 0,27.648 36.352,0 q 14.848,0 25.6,10.752 10.752,10.752 10.752,25.6 z" />
  </g>
</svg>
