<?xml version="1.0" encoding="UTF-8" standalone="no"?>
<!-- Generator: IcoMoon.io -->

<svg
   xmlns:dc="http://purl.org/dc/elements/1.1/"
   xmlns:cc="http://creativecommons.org/ns#"
   xmlns:rdf="http://www.w3.org/1999/02/22-rdf-syntax-ns#"
   xmlns:svg="http://www.w3.org/2000/svg"
   xmlns="http://www.w3.org/2000/svg"
   xmlns:sodipodi="http://sodipodi.sourceforge.net/DTD/sodipodi-0.dtd"
   xmlns:inkscape="http://www.inkscape.org/namespaces/inkscape"
   width="512"
   height="512"
   viewBox="0 0 512 512"
   fill="#000000"
   id="svg3521"
   version="1.1"
   inkscape:version="0.48.2 r9819"
   sodipodi:docname="calendar.svg">
  <metadata
     id="metadata3531">
    <rdf:RDF>
      <cc:Work
         rdf:about="">
        <dc:format>image/svg+xml</dc:format>
        <dc:type
           rdf:resource="http://purl.org/dc/dcmitype/StillImage" />
      </cc:Work>
    </rdf:RDF>
  </metadata>
  <defs
     id="defs3529" />
  <sodipodi:namedview
     pagecolor="#ffffff"
     bordercolor="#666666"
     borderopacity="1"
     objecttolerance="10"
     gridtolerance="10"
     guidetolerance="10"
     inkscape:pageopacity="0"
     inkscape:pageshadow="2"
     inkscape:window-width="640"
     inkscape:window-height="480"
     id="namedview3527"
     showgrid="false"
     inkscape:zoom="0.4609375"
     inkscape:cx="256"
     inkscape:cy="256"
     inkscape:window-x="0"
     inkscape:window-y="0"
     inkscape:window-maximized="0"
     inkscape:current-layer="svg3521" />
  <g
     id="g3523"
     transform="translate(19.694915,-0.512)">
    <path
       d="m 36.206,475.648 82.432,0 0,-82.432 -82.432,0 0,82.432 z m 100.352,0 91.648,0 0,-82.432 -91.648,0 0,82.432 z M 36.206,375.296 l 82.432,0 0,-91.648 -82.432,0 0,91.648 z m 100.352,0 91.648,0 0,-91.648 -91.648,0 0,91.648 z M 36.206,265.728 l 82.432,0 0,-82.432 -82.432,0 0,82.432 z m 210.432,210.432 91.648,0 0,-82.432 -91.648,0 0,82.432 z M 137.07,265.728 l 91.648,0 0,-82.432 -91.648,0 0,82.432 z m 219.648,210.432 82.432,0 0,-82.432 -82.432,0 0,82.432 z M 247.15,375.808 l 91.648,0 0,-91.648 -91.648,0 0,91.648 z m -100.352,-246.784 0,-82.432 q 0,-3.584 -2.56,-6.656 -2.56,-3.072 -6.656,-2.56 l -18.432,0 q -3.584,0 -6.656,2.56 -3.072,2.56 -2.56,6.656 l 0,82.432 q 0,3.584 2.56,6.656 2.56,3.072 6.656,2.56 l 18.432,0 q 3.584,0 6.656,-2.56 3.072,-2.56 2.56,-6.656 z m 210.432,246.784 82.432,0 0,-91.648 -82.432,0 0,91.648 z M 247.662,266.24 l 91.648,0 0,-82.432 -91.648,0 0,82.432 z m 109.568,0 82.432,0 0,-82.432 -82.432,0 0,82.432 z m 9.216,-137.216 0,-82.432 q 0,-3.584 -2.56,-6.656 -2.56,-3.072 -6.656,-2.56 l -18.432,0 q -3.584,0 -6.656,2.56 -3.072,2.56 -2.56,6.656 l 0,82.432 q 0,3.584 2.56,6.656 2.56,3.072 6.656,2.56 l 18.432,0 q 3.584,0 6.656,-2.56 3.072,-2.56 2.56,-6.656 z m 109.568,-18.432 0,365.568 q 0,14.848 -10.752,25.6 -10.752,10.752 -25.6,10.752 l -402.432,0 q -14.848,0 -25.6,-10.752 Q 0.878,491.008 0.878,476.16 l 0,-365.568 q 0,-14.848 10.752,-25.6 Q 22.382,74.24 37.23,74.24 l 36.352,0 0,-27.648 q 0,-18.944 13.312,-32.256 Q 100.206,1.024 119.15,1.024 l 18.432,0 q 18.944,0 32.256,13.312 13.312,13.312 13.312,32.256 l 0,27.648 109.568,0 0,-27.648 q 0,-18.944 13.312,-32.256 13.312,-13.312 32.256,-13.312 l 18.432,0 q 18.944,0 32.256,13.312 13.312,13.312 13.312,32.256 l 0,27.648 36.352,0 q 14.848,0 25.6,10.752 10.752,10.752 10.752,25.6 z"
       id="path3525"
       inkscape:connector-curvature="0" />
  </g>
</svg>
