<?xml version="1.0" encoding="UTF-8" standalone="no"?>
<svg xmlns="http://www.w3.org/2000/svg" width="512" height="512" viewBox="0 0 512 512" fill="#000000" version="1.1">
    <g>
        <path d="M 256,204.8q 32.768,0 54.784,22.528t 22.016,54.272-22.528,54.272-54.272,22.528-54.272-22.528-22.528-54.272 22.528-54.272 54.272-22.528z m 204.8-76.8q 21.504,0 36.352,14.848t 14.848,36.352l0,230.4q0,20.48-14.848,35.84t-36.352,15.36l-409.6,0q-20.48,0-35.84-15.36t-15.36-35.84l0-230.4q0-21.504 15.36-36.352t 35.84-14.848l 61.44,0q 14.336,0 20.48-15.36l 15.36-47.104q 5.12-14.336 20.48-14.336l 174.080,0q 15.36,0 20.48,14.336l 15.36,47.104q 6.144,15.36 20.48,15.36l 61.44,0z m-204.8,281.6q 53.248,0 90.624-37.376t 37.376-90.624-37.376-90.624-90.624-37.376-90.624,37.376-37.376,90.624 37.376,90.624 90.624,37.376z m 187.392-194.56q 7.168,0 12.288-5.632t 5.12-12.8-5.12-12.288-12.288-5.12q-18.432,0-18.432,17.408 0,8.192 5.632,13.312t 12.8,5.12z" />
   </g>
</svg>
