<?xml version="1.0" encoding="UTF-8" standalone="no"?>
<svg xmlns="http://www.w3.org/2000/svg" width="512" height="512" viewBox="0 0 512 512" fill="#000000" version="1.1">
  <g transform="translate(56.40678,-21.694915)">
    <path d="m 370.505,377.856 q 0,11.264 -8.192,19.456 l -38.912,38.912 q -8.192,8.192 -19.456,8.192 -11.264,0 -19.456,-8.192 l -83.968,-83.968 -83.968,83.968 q -8.192,8.192 -19.456,8.192 -11.264,0 -19.456,-8.192 L 38.729,397.312 q -8.192,-8.192 -8.192,-19.456 0,-11.264 8.192,-19.456 l 83.968,-83.968 -83.968,-83.968 q -8.192,-8.192 -8.192,-19.456 0,-11.264 8.192,-19.456 L 77.641,112.64 q 8.192,-8.192 19.456,-8.192 11.264,0 19.456,8.192 l 83.968,83.968 83.968,-83.968 q 8.192,-8.192 19.456,-8.192 11.264,0 19.456,8.192 l 38.912,38.912 q 8.192,8.192 8.192,19.456 0,11.264 -8.192,19.456 l -83.968,83.968 83.968,83.968 q 8.192,8.192 8.192,19.456 z" />
  </g>
</svg>
