<?xml version="1.0" encoding="UTF-8" standalone="no"?>
<!-- Generator: IcoMoon.io -->

<svg
   xmlns:dc="http://purl.org/dc/elements/1.1/"
   xmlns:cc="http://creativecommons.org/ns#"
   xmlns:rdf="http://www.w3.org/1999/02/22-rdf-syntax-ns#"
   xmlns:svg="http://www.w3.org/2000/svg"
   xmlns="http://www.w3.org/2000/svg"
   xmlns:sodipodi="http://sodipodi.sourceforge.net/DTD/sodipodi-0.dtd"
   xmlns:inkscape="http://www.inkscape.org/namespaces/inkscape"
   width="512"
   height="512"
   viewBox="0 0 512 512"
   fill="#000000"
   id="svg3637"
   version="1.1"
   inkscape:version="0.48.2 r9819"
   sodipodi:docname="cancel.svg">
  <metadata
     id="metadata3647">
    <rdf:RDF>
      <cc:Work
         rdf:about="">
        <dc:format>image/svg+xml</dc:format>
        <dc:type
           rdf:resource="http://purl.org/dc/dcmitype/StillImage" />
      </cc:Work>
    </rdf:RDF>
  </metadata>
  <defs
     id="defs3645" />
  <sodipodi:namedview
     pagecolor="#ffffff"
     bordercolor="#666666"
     borderopacity="1"
     objecttolerance="10"
     gridtolerance="10"
     guidetolerance="10"
     inkscape:pageopacity="0"
     inkscape:pageshadow="2"
     inkscape:window-width="640"
     inkscape:window-height="480"
     id="namedview3643"
     showgrid="false"
     inkscape:zoom="0.4609375"
     inkscape:cx="256"
     inkscape:cy="256"
     inkscape:window-x="0"
     inkscape:window-y="0"
     inkscape:window-maximized="0"
     inkscape:current-layer="svg3637" />
  <g
     id="g3639"
     transform="translate(56.40678,-21.694915)">
    <path
       d="m 370.505,377.856 q 0,11.264 -8.192,19.456 l -38.912,38.912 q -8.192,8.192 -19.456,8.192 -11.264,0 -19.456,-8.192 l -83.968,-83.968 -83.968,83.968 q -8.192,8.192 -19.456,8.192 -11.264,0 -19.456,-8.192 L 38.729,397.312 q -8.192,-8.192 -8.192,-19.456 0,-11.264 8.192,-19.456 l 83.968,-83.968 -83.968,-83.968 q -8.192,-8.192 -8.192,-19.456 0,-11.264 8.192,-19.456 L 77.641,112.64 q 8.192,-8.192 19.456,-8.192 11.264,0 19.456,8.192 l 83.968,83.968 83.968,-83.968 q 8.192,-8.192 19.456,-8.192 11.264,0 19.456,8.192 l 38.912,38.912 q 8.192,8.192 8.192,19.456 0,11.264 -8.192,19.456 l -83.968,83.968 83.968,83.968 q 8.192,8.192 8.192,19.456 z"
       id="path3641"
       inkscape:connector-curvature="0" />
  </g>
</svg>
