<?xml version="1.0" encoding="UTF-8" standalone="no"?>
<!-- Generator: IcoMoon.io -->

<svg
   xmlns:dc="http://purl.org/dc/elements/1.1/"
   xmlns:cc="http://creativecommons.org/ns#"
   xmlns:rdf="http://www.w3.org/1999/02/22-rdf-syntax-ns#"
   xmlns:svg="http://www.w3.org/2000/svg"
   xmlns="http://www.w3.org/2000/svg"
   xmlns:sodipodi="http://sodipodi.sourceforge.net/DTD/sodipodi-0.dtd"
   xmlns:inkscape="http://www.inkscape.org/namespaces/inkscape"
   width="512"
   height="512"
   viewBox="0 0 512 512"
   fill="#000000"
   id="svg3686"
   version="1.1"
   inkscape:version="0.48.2 r9819"
   sodipodi:docname="cancel-circled2.svg">
  <metadata
     id="metadata3696">
    <rdf:RDF>
      <cc:Work
         rdf:about="">
        <dc:format>image/svg+xml</dc:format>
        <dc:type
           rdf:resource="http://purl.org/dc/dcmitype/StillImage" />
      </cc:Work>
    </rdf:RDF>
  </metadata>
  <defs
     id="defs3694" />
  <sodipodi:namedview
     pagecolor="#ffffff"
     bordercolor="#666666"
     borderopacity="1"
     objecttolerance="10"
     gridtolerance="10"
     guidetolerance="10"
     inkscape:pageopacity="0"
     inkscape:pageshadow="2"
     inkscape:window-width="640"
     inkscape:window-height="480"
     id="namedview3692"
     showgrid="false"
     inkscape:zoom="0.4609375"
     inkscape:cx="256"
     inkscape:cy="256"
     inkscape:window-x="0"
     inkscape:window-y="0"
     inkscape:window-maximized="0"
     inkscape:current-layer="svg3686" />
  <g
     id="g3688"
     transform="translate(36.881356,0)">
    <path
       d="m 313.307,308.224 -41.472,41.472 q -3.072,3.072 -6.656,3.072 -3.584,0 -6.656,-3.072 l -38.912,-38.912 -38.912,38.912 q -3.072,3.072 -6.656,3.072 -3.584,0 -6.656,-3.072 l -41.472,-41.472 q -3.072,-3.072 -3.072,-6.656 0,-3.584 3.072,-6.656 L 164.827,256 125.915,217.088 q -3.072,-3.072 -3.072,-6.656 0,-3.584 3.072,-6.656 l 41.472,-41.472 q 3.072,-3.072 6.656,-3.072 3.584,0 6.656,3.072 l 38.912,38.912 38.912,-38.912 q 3.072,-3.072 6.656,-3.072 3.584,0 6.656,3.072 l 41.472,41.472 q 3.072,3.072 3.072,6.656 0,3.584 -3.072,6.656 L 274.395,256 l 38.912,38.912 q 3.072,3.072 3.072,6.656 0,3.584 -3.072,6.656 z M 374.747,256 q 0,-42.496 -20.992,-77.824 -20.992,-35.328 -56.32,-56.32 -35.328,-20.992 -77.824,-20.992 -42.496,0 -77.824,20.992 -35.328,20.992 -56.32,56.32 -20.992,35.328 -20.992,77.824 0,42.496 20.992,77.824 20.992,35.328 56.32,56.32 35.328,20.992 77.824,20.992 42.496,0 77.824,-20.992 35.328,-20.992 56.32,-56.32 20.992,-35.328 20.992,-77.824 z m 64,0 q 0,59.904 -29.184,110.08 -29.184,50.176 -79.872,79.872 -50.688,29.696 -110.08,29.184 -59.392,-0.512 -110.08,-29.184 Q 58.843,417.28 29.659,366.08 0.475,314.88 0.475,256 q 0,-58.88 29.184,-110.08 29.184,-51.2 79.872,-79.872 50.688,-28.672 110.08,-29.184 59.392,-0.512 110.08,29.184 50.688,29.696 79.872,79.872 29.184,50.176 29.184,110.08 z"
       id="path3690"
       inkscape:connector-curvature="0" />
  </g>
</svg>
