<?xml version="1.0" encoding="UTF-8" standalone="no"?>
<svg xmlns="http://www.w3.org/2000/svg" width="512" height="512" viewBox="0 0 512 512" fill="#000000" version="1.1">
  <g transform="translate(75.762712,0)">
    <path d="m 365.495,219.648 0,228.352 q 0,11.264 -8.192,19.456 -8.192,8.192 -19.456,8.192 l -310.784,0 q -11.264,0 -19.456,-8.192 Q -0.585,459.264 -0.585,448 l 0,-384 q 0,-11.264 8.192,-19.456 8.192,-8.192 19.456,-8.192 l 155.648,0 0,155.648 q 0,11.264 8.192,19.456 8.192,8.192 19.456,8.192 l 155.648,0 z m -1.024,-36.352 -145.408,0 0,-145.408 q 23.552,4.096 37.888,18.432 l 89.088,89.088 q 14.336,14.336 18.432,37.888 z" />
  </g>
</svg>
