<?xml version="1.0" encoding="UTF-8" standalone="no"?>
<!-- Generator: IcoMoon.io -->

<svg
   xmlns:dc="http://purl.org/dc/elements/1.1/"
   xmlns:cc="http://creativecommons.org/ns#"
   xmlns:rdf="http://www.w3.org/1999/02/22-rdf-syntax-ns#"
   xmlns:svg="http://www.w3.org/2000/svg"
   xmlns="http://www.w3.org/2000/svg"
   xmlns:sodipodi="http://sodipodi.sourceforge.net/DTD/sodipodi-0.dtd"
   xmlns:inkscape="http://www.inkscape.org/namespaces/inkscape"
   width="512"
   height="512"
   viewBox="0 0 512 512"
   fill="#000000"
   id="svg3808"
   version="1.1"
   inkscape:version="0.48.2 r9819"
   sodipodi:docname="doc.svg">
  <metadata
     id="metadata3818">
    <rdf:RDF>
      <cc:Work
         rdf:about="">
        <dc:format>image/svg+xml</dc:format>
        <dc:type
           rdf:resource="http://purl.org/dc/dcmitype/StillImage" />
      </cc:Work>
    </rdf:RDF>
  </metadata>
  <defs
     id="defs3816" />
  <sodipodi:namedview
     pagecolor="#ffffff"
     bordercolor="#666666"
     borderopacity="1"
     objecttolerance="10"
     gridtolerance="10"
     guidetolerance="10"
     inkscape:pageopacity="0"
     inkscape:pageshadow="2"
     inkscape:window-width="640"
     inkscape:window-height="480"
     id="namedview3814"
     showgrid="false"
     inkscape:zoom="0.4609375"
     inkscape:cx="256"
     inkscape:cy="256"
     inkscape:window-x="0"
     inkscape:window-y="0"
     inkscape:window-maximized="0"
     inkscape:current-layer="svg3808" />
  <g
     id="g3810"
     transform="translate(75.762712,0)">
    <path
       d="m 365.495,219.648 0,228.352 q 0,11.264 -8.192,19.456 -8.192,8.192 -19.456,8.192 l -310.784,0 q -11.264,0 -19.456,-8.192 Q -0.585,459.264 -0.585,448 l 0,-384 q 0,-11.264 8.192,-19.456 8.192,-8.192 19.456,-8.192 l 155.648,0 0,155.648 q 0,11.264 8.192,19.456 8.192,8.192 19.456,8.192 l 155.648,0 z m -1.024,-36.352 -145.408,0 0,-145.408 q 23.552,4.096 37.888,18.432 l 89.088,89.088 q 14.336,14.336 18.432,37.888 z"
       id="path3812"
       inkscape:connector-curvature="0" />
  </g>
</svg>
