<?xml version="1.0" encoding="UTF-8" standalone="no"?>
<svg xmlns="http://www.w3.org/2000/svg" width="512" height="512" viewBox="0 0 512 512" fill="#000000" version="1.1">
  <g transform="translate(28.20339,4.3389831)">
    <path d="m 452.608,279.552 q 13.312,22.528 7.168,49.152 l -17.408,94.208 q -1.024,10.24 -9.728,17.92 -8.704,7.68 -19.968,7.68 l -364.544,0 q -10.24,0 -19.456,-7.68 -9.216,-7.68 -10.24,-17.92 L 1.024,328.704 Q -3.072,302.08 8.192,279.552 L 89.088,88.064 q 11.264,-23.552 36.864,-23.552 l 208.896,0 q 25.6,0 37.888,23.552 z m -34.816,67.584 q 1.024,-11.264 -5.12,-19.456 -6.144,-8.192 -17.408,-8.192 l -329.728,0 q -11.264,0 -17.408,8.192 -6.144,8.192 -5.12,19.456 l 7.168,37.888 q 1.024,11.264 9.728,18.944 8.704,7.68 19.968,7.68 l 302.08,0 q 11.264,0 19.968,-7.68 8.704,-7.68 9.728,-18.944 z" />
  </g>
</svg>
