<?xml version="1.0" encoding="UTF-8" standalone="no"?>
<svg
   xmlns="http://www.w3.org/2000/svg" 
   xmlns:xlink="http://www.w3.org/1999/xlink"
   width="512"
   height="512"
   viewBox="0 0 512 512"
   fill="#000000"
   id="svg4575"
   version="1.1">
  <g
     id="g4577"
     transform="translate(54.237288,0)">
    <path
       d="m 336.896,51.2 72.704,79.872 0,278.528 q 0,20.48 -14.848,35.84 -14.848,15.36 -36.352,15.36 l -307.2,0 Q 30.72,460.8 15.36,445.44 0,430.08 0,409.6 L 0,102.4 Q 0,80.896 15.36,66.048 30.72,51.2 51.2,51.2 l 285.696,0 z m -29.696,153.6 0,-128 -204.8,0 0,128 q 0,10.24 7.68,17.92 7.68,7.68 17.92,7.68 l 153.6,0 q 10.24,0 17.92,-7.68 7.68,-7.68 7.68,-17.92 z m -25.6,-102.4 0,102.4 -51.2,0 0,-102.4 51.2,0 z"
       id="path4579" />
  </g>
</svg>