<?xml version="1.0" encoding="UTF-8" standalone="no"?>
<svg xmlns="http://www.w3.org/2000/svg" width="512" height="512" viewBox="0 0 512 512" fill="#000000" version="1.1">
  <g transform="translate(6.6779661,30.033898)">
    <path d="m 500.804,253.843 q 0,8.124 -8.124,17.681 l -89.361,105.609 q -11.469,13.38 -32.017,22.938 -20.548,9.558 -38.229,9.557 l -290.065,0 q -9.079,0 -16.247,-3.345 -7.168,-3.345 -7.168,-11.469 0,-8.124 8.124,-17.681 l 89.361,-105.609 q 11.469,-13.38 32.017,-22.938 20.548,-9.558 38.229,-9.557 l 290.065,0 q 9.079,0 16.247,3.345 7.168,3.345 7.168,11.469 z m -91.273,-91.75 0,42.53 -221.73,0 q -24.849,0 -52.565,12.902 -27.716,12.902 -43.964,32.017 l -89.839,105.609 -1.434,1.434 q 0,-0.956 0,-3.345 0,-2.389 0,-3.345 l 0,-256.136 q 0,-24.371 17.681,-42.052 17.681,-17.681 42.052,-17.681 l 85.538,0 q 24.371,0 42.052,17.681 17.681,17.681 17.681,42.052 l 0,8.602 145.271,0 q 24.371,0 42.052,17.681 17.681,17.681 17.681,42.052 z" />
  </g>
</svg>
