<?xml version="1.0" encoding="UTF-8" standalone="no"?>
<!-- Generator: IcoMoon.io -->

<svg
   xmlns:dc="http://purl.org/dc/elements/1.1/"
   xmlns:cc="http://creativecommons.org/ns#"
   xmlns:rdf="http://www.w3.org/1999/02/22-rdf-syntax-ns#"
   xmlns:svg="http://www.w3.org/2000/svg"
   xmlns="http://www.w3.org/2000/svg"
   xmlns:sodipodi="http://sodipodi.sourceforge.net/DTD/sodipodi-0.dtd"
   xmlns:inkscape="http://www.inkscape.org/namespaces/inkscape"
   width="512"
   height="512"
   viewBox="0 0 512 512"
   fill="#000000"
   id="svg4934"
   version="1.1"
   inkscape:version="0.48.2 r9819"
   sodipodi:docname="folder-open.svg">
  <metadata
     id="metadata4944">
    <rdf:RDF>
      <cc:Work
         rdf:about="">
        <dc:format>image/svg+xml</dc:format>
        <dc:type
           rdf:resource="http://purl.org/dc/dcmitype/StillImage" />
      </cc:Work>
    </rdf:RDF>
  </metadata>
  <defs
     id="defs4942" />
  <sodipodi:namedview
     pagecolor="#ffffff"
     bordercolor="#666666"
     borderopacity="1"
     objecttolerance="10"
     gridtolerance="10"
     guidetolerance="10"
     inkscape:pageopacity="0"
     inkscape:pageshadow="2"
     inkscape:window-width="640"
     inkscape:window-height="480"
     id="namedview4940"
     showgrid="false"
     inkscape:zoom="0.4609375"
     inkscape:cx="256"
     inkscape:cy="256"
     inkscape:window-x="0"
     inkscape:window-y="0"
     inkscape:window-maximized="0"
     inkscape:current-layer="svg4934" />
  <g
     id="g4936"
     transform="translate(6.6779661,30.033898)">
    <path
       d="m 500.804,253.843 q 0,8.124 -8.124,17.681 l -89.361,105.609 q -11.469,13.38 -32.017,22.938 -20.548,9.558 -38.229,9.557 l -290.065,0 q -9.079,0 -16.247,-3.345 -7.168,-3.345 -7.168,-11.469 0,-8.124 8.124,-17.681 l 89.361,-105.609 q 11.469,-13.38 32.017,-22.938 20.548,-9.558 38.229,-9.557 l 290.065,0 q 9.079,0 16.247,3.345 7.168,3.345 7.168,11.469 z m -91.273,-91.75 0,42.53 -221.73,0 q -24.849,0 -52.565,12.902 -27.716,12.902 -43.964,32.017 l -89.839,105.609 -1.434,1.434 q 0,-0.956 0,-3.345 0,-2.389 0,-3.345 l 0,-256.136 q 0,-24.371 17.681,-42.052 17.681,-17.681 42.052,-17.681 l 85.538,0 q 24.371,0 42.052,17.681 17.681,17.681 17.681,42.052 l 0,8.602 145.271,0 q 24.371,0 42.052,17.681 17.681,17.681 17.681,42.052 z"
       id="path4938"
       inkscape:connector-curvature="0" />
  </g>
</svg>
