<?xml version="1.0" encoding="UTF-8" standalone="no"?>
<!-- Generator: IcoMoon.io -->

<svg
   xmlns:dc="http://purl.org/dc/elements/1.1/"
   xmlns:cc="http://creativecommons.org/ns#"
   xmlns:rdf="http://www.w3.org/1999/02/22-rdf-syntax-ns#"
   xmlns:svg="http://www.w3.org/2000/svg"
   xmlns="http://www.w3.org/2000/svg"
   xmlns:sodipodi="http://sodipodi.sourceforge.net/DTD/sodipodi-0.dtd"
   xmlns:inkscape="http://www.inkscape.org/namespaces/inkscape"
   width="512"
   height="512"
   viewBox="0 0 512 512"
   fill="#000000"
   id="svg4885"
   version="1.1"
   inkscape:version="0.48.2 r9819"
   sodipodi:docname="help.svg">
  <metadata
     id="metadata4895">
    <rdf:RDF>
      <cc:Work
         rdf:about="">
        <dc:format>image/svg+xml</dc:format>
        <dc:type
           rdf:resource="http://purl.org/dc/dcmitype/StillImage" />
      </cc:Work>
    </rdf:RDF>
  </metadata>
  <defs
     id="defs4893" />
  <sodipodi:namedview
     pagecolor="#ffffff"
     bordercolor="#666666"
     borderopacity="1"
     objecttolerance="10"
     gridtolerance="10"
     guidetolerance="10"
     inkscape:pageopacity="0"
     inkscape:pageshadow="2"
     inkscape:window-width="640"
     inkscape:window-height="480"
     id="namedview4891"
     showgrid="false"
     inkscape:zoom="0.4609375"
     inkscape:cx="256"
     inkscape:cy="256"
     inkscape:window-x="0"
     inkscape:window-y="0"
     inkscape:window-maximized="0"
     inkscape:current-layer="svg4885" />
  <g
     id="g4887"
     transform="translate(95.457627,0)">
    <path
       d="m 201.106,358.912 0,68.608 q 0,4.608 -3.584,8.192 -3.584,3.584 -8.192,3.584 l -68.608,0 q -4.608,0 -8.192,-3.584 -3.584,-3.584 -3.584,-8.192 l 0,-68.608 q 0,-4.608 3.584,-8.192 3.584,-3.584 8.192,-3.584 l 68.608,0 q 4.608,0 8.192,3.584 3.584,3.584 3.584,8.192 z m 90.112,-171.52 q 0,15.36 -4.608,28.672 -4.608,13.312 -10.24,22.016 -5.632,8.704 -15.872,16.896 -10.24,8.192 -16.384,12.288 -6.144,4.096 -17.408,10.24 -11.776,6.656 -19.456,18.432 -7.68,11.776 -7.68,18.944 0,4.608 -3.584,9.216 -3.584,4.608 -8.192,4.608 l -68.608,0 q -4.096,0 -7.168,-5.12 -3.072,-5.12 -3.072,-10.752 l 0,-12.8 q 0,-23.552 18.432,-44.544 18.432,-20.992 40.96,-31.232 16.896,-7.68 24.064,-15.872 7.168,-8.192 7.168,-21.504 0,-11.776 -13.312,-20.992 -13.312,-9.216 -30.72,-9.216 -18.432,0 -30.72,8.192 -10.24,7.168 -30.72,32.768 -3.584,4.608 -8.704,4.608 -3.584,0 -7.168,-2.048 l -47.104,-35.84 q -3.584,-3.072 -4.608,-7.168 -1.024,-4.096 1.536,-8.192 45.568,-75.776 132.608,-75.776 23.04,0 46.08,8.704 23.04,8.704 41.472,23.552 18.432,14.848 30.208,36.352 11.776,21.504 11.776,45.056 z"
       id="path4889"
       inkscape:connector-curvature="0" />
  </g>
</svg>
