<?xml version="1.0" encoding="UTF-8" standalone="no"?>
<svg xmlns="http://www.w3.org/2000/svg" width="512" height="512" viewBox="0 0 512 512" fill="#000000" version="1.1">
  <g>
    <path d="M 416,16c0-8.832-7.152-16-16-16l-16,0 l-16,0 L 144,0 L 128,0 L 112,0 C 103.168,0, 96,7.168, 96,16L0,256l0,224 c0,17.664, 14.336,32, 32,32l 448,0 c 17.664,0, 32-14.336, 32-32L 512,256 L 416,16z M 368,256l-48,80c0,8.848-7.152,16-16,16l-96,0 c-8.848,0-16-7.152-16-16l-48-80L 64,256 L 146.288,64 l 219.44,0 L 448,256L 368,256 z" />
  </g>
</svg>
