<?xml version="1.0" encoding="UTF-8" standalone="no"?>
<svg xmlns="http://www.w3.org/2000/svg" width="512" height="512" viewBox="0 0 512 512" fill="#000000" version="1.1">
  <g transform="translate(164.88136,15.186441)">
    <path d="m 182.747,384 0,36.352 q 0,7.68 -5.632,12.8 -5.632,5.12 -12.8,5.632 l -146.432,0 q -7.68,0 -12.8,-5.632 -5.12,-5.632 -5.632,-12.8 l 0,-36.352 q 0,-7.68 5.632,-12.8 5.632,-5.12 12.8,-5.632 l 18.432,0 0,-109.568 -18.432,0 q -7.68,0 -12.8,-5.632 -5.12,-5.632 -5.632,-12.8 l 0,-36.352 q 0,-7.68 5.632,-12.8 5.632,-5.12 12.8,-5.632 l 109.568,0 q 7.68,0 12.8,5.632 5.12,5.632 5.632,12.8 l 0,164.352 18.432,0 q 7.68,0 12.8,5.632 5.12,5.632 5.632,12.8 z m -36.352,-329.216 0,54.784 q 0,7.68 -5.632,12.8 -5.632,5.12 -12.8,5.632 l -73.216,0 q -7.68,0 -12.8,-5.632 -5.12,-5.632 -5.632,-12.8 l 0,-54.784 q 0,-7.68 5.632,-12.8 5.632,-5.12 12.8,-5.632 l 73.216,0 q 7.68,0 12.8,5.632 5.12,5.632 5.632,12.8 z" />
  </g>
</svg>
