<?xml version="1.0" encoding="UTF-8" standalone="no"?>
<!-- Generator: IcoMoon.io -->

<svg
   xmlns:dc="http://purl.org/dc/elements/1.1/"
   xmlns:cc="http://creativecommons.org/ns#"
   xmlns:rdf="http://www.w3.org/1999/02/22-rdf-syntax-ns#"
   xmlns:svg="http://www.w3.org/2000/svg"
   xmlns="http://www.w3.org/2000/svg"
   xmlns:sodipodi="http://sodipodi.sourceforge.net/DTD/sodipodi-0.dtd"
   xmlns:inkscape="http://www.inkscape.org/namespaces/inkscape"
   width="512"
   height="512"
   viewBox="0 0 512 512"
   fill="#000000"
   id="svg4636"
   version="1.1"
   inkscape:version="0.48.2 r9819"
   sodipodi:docname="info.svg">
  <metadata
     id="metadata4646">
    <rdf:RDF>
      <cc:Work
         rdf:about="">
        <dc:format>image/svg+xml</dc:format>
        <dc:type
           rdf:resource="http://purl.org/dc/dcmitype/StillImage" />
      </cc:Work>
    </rdf:RDF>
  </metadata>
  <defs
     id="defs4644" />
  <sodipodi:namedview
     pagecolor="#ffffff"
     bordercolor="#666666"
     borderopacity="1"
     objecttolerance="10"
     gridtolerance="10"
     guidetolerance="10"
     inkscape:pageopacity="0"
     inkscape:pageshadow="2"
     inkscape:window-width="640"
     inkscape:window-height="480"
     id="namedview4642"
     showgrid="false"
     inkscape:zoom="0.4609375"
     inkscape:cx="256"
     inkscape:cy="256"
     inkscape:window-x="0"
     inkscape:window-y="0"
     inkscape:window-maximized="0"
     inkscape:current-layer="svg4636" />
  <g
     id="g4638"
     transform="translate(164.88136,15.186441)">
    <path
       d="m 182.747,384 0,36.352 q 0,7.68 -5.632,12.8 -5.632,5.12 -12.8,5.632 l -146.432,0 q -7.68,0 -12.8,-5.632 -5.12,-5.632 -5.632,-12.8 l 0,-36.352 q 0,-7.68 5.632,-12.8 5.632,-5.12 12.8,-5.632 l 18.432,0 0,-109.568 -18.432,0 q -7.68,0 -12.8,-5.632 -5.12,-5.632 -5.632,-12.8 l 0,-36.352 q 0,-7.68 5.632,-12.8 5.632,-5.12 12.8,-5.632 l 109.568,0 q 7.68,0 12.8,5.632 5.12,5.632 5.632,12.8 l 0,164.352 18.432,0 q 7.68,0 12.8,5.632 5.12,5.632 5.632,12.8 z m -36.352,-329.216 0,54.784 q 0,7.68 -5.632,12.8 -5.632,5.12 -12.8,5.632 l -73.216,0 q -7.68,0 -12.8,-5.632 -5.12,-5.632 -5.632,-12.8 l 0,-54.784 q 0,-7.68 5.632,-12.8 5.632,-5.12 12.8,-5.632 l 73.216,0 q 7.68,0 12.8,5.632 5.12,5.632 5.632,12.8 z"
       id="path4640"
       inkscape:connector-curvature="0" />
  </g>
</svg>
