<?xml version="1.0" encoding="utf-8"?> <!-- Generator: IcoMoon.io --> <!DOCTYPE svg PUBLIC "-//W3C//DTD SVG 1.1//EN" "http://www.w3.org/Graphics/SVG/1.1/DTD/svg11.dtd"> <svg width="512" height="512" viewBox="0 0 512 512" xmlns="http://www.w3.org/2000/svg" xmlns:xlink="http://www.w3.org/1999/xlink" fill="#BFBFBF"><g><path d="M 208,0c 9,0 16,7 16,16l0,192 c0,9 -7,16 -16,16l-192,0 c-9,0 -16-7 -16-16l0-192 c0-9 7-16 16-16l 192,0 zM 496,0c 9,0 16,7 16,16l0,192 c0,9 -7,16 -16,16l-192,0 c-9,0 -16-7 -16-16l0-192 c0-9 7-16 16-16l 192,0 zM 208,288c 9,0 16,7 16,16l0,192 c0,9 -7,16 -16,16l-192,0 c-9,0 -16-7 -16-16l0-192 c0-9 7-16 16-16l 192,0 zM 496,288l-192,0 c-9,0 -16,7 -16,16l0,192 c0,9 7,16 16,16l 192,0 c 9,0 16-7 16-16l0-192 c0-9 -7-16 -16-16z"></path></g></svg>
