<?xml version="1.0" encoding="UTF-8" standalone="no"?>
<svg xmlns="http://www.w3.org/2000/svg" width="512" height="512" viewBox="0 0 512 512" fill="#000000" version="1.1">
  <g transform="translate(62.915254,0)">
    <path d="M 105.472,69.632 378.88,10.24 l 0,360.448 q 1.024,21.504 -15.36,41.472 -16.384,19.968 -44.032,30.208 -32.768,12.288 -56.32,4.096 -23.552,-8.192 -31.744,-32.768 -9.216,-24.576 3.584,-49.664 12.8,-25.088 43.52,-37.376 26.624,-10.24 54.272,-5.12 l 0,-192.512 -181.248,41.984 0,250.88 q 0,21.504 -16.384,41.472 -16.384,19.968 -44.032,30.208 -32.768,11.264 -55.808,3.584 -23.04,-7.68 -31.232,-32.256 -9.216,-24.576 3.072,-49.664 12.288,-25.088 43.008,-37.376 27.648,-10.24 55.296,-5.12 l 0,-303.104 z" />
  </g>
</svg>
