<?xml version="1.0" encoding="UTF-8" standalone="no"?>
<!-- Generator: IcoMoon.io -->

<svg
   xmlns:dc="http://purl.org/dc/elements/1.1/"
   xmlns:cc="http://creativecommons.org/ns#"
   xmlns:rdf="http://www.w3.org/1999/02/22-rdf-syntax-ns#"
   xmlns:svg="http://www.w3.org/2000/svg"
   xmlns="http://www.w3.org/2000/svg"
   xmlns:sodipodi="http://sodipodi.sourceforge.net/DTD/sodipodi-0.dtd"
   xmlns:inkscape="http://www.inkscape.org/namespaces/inkscape"
   width="512"
   height="512"
   viewBox="0 0 512 512"
   fill="#000000"
   id="svg4691"
   version="1.1"
   inkscape:version="0.48.2 r9819"
   sodipodi:docname="music.svg">
  <metadata
     id="metadata4701">
    <rdf:RDF>
      <cc:Work
         rdf:about="">
        <dc:format>image/svg+xml</dc:format>
        <dc:type
           rdf:resource="http://purl.org/dc/dcmitype/StillImage" />
      </cc:Work>
    </rdf:RDF>
  </metadata>
  <defs
     id="defs4699" />
  <sodipodi:namedview
     pagecolor="#ffffff"
     bordercolor="#666666"
     borderopacity="1"
     objecttolerance="10"
     gridtolerance="10"
     guidetolerance="10"
     inkscape:pageopacity="0"
     inkscape:pageshadow="2"
     inkscape:window-width="640"
     inkscape:window-height="480"
     id="namedview4697"
     showgrid="false"
     inkscape:zoom="0.4609375"
     inkscape:cx="256"
     inkscape:cy="256"
     inkscape:window-x="0"
     inkscape:window-y="0"
     inkscape:window-maximized="0"
     inkscape:current-layer="svg4691" />
  <g
     id="g4693"
     transform="translate(62.915254,0)">
    <path
       d="M 105.472,69.632 378.88,10.24 l 0,360.448 q 1.024,21.504 -15.36,41.472 -16.384,19.968 -44.032,30.208 -32.768,12.288 -56.32,4.096 -23.552,-8.192 -31.744,-32.768 -9.216,-24.576 3.584,-49.664 12.8,-25.088 43.52,-37.376 26.624,-10.24 54.272,-5.12 l 0,-192.512 -181.248,41.984 0,250.88 q 0,21.504 -16.384,41.472 -16.384,19.968 -44.032,30.208 -32.768,11.264 -55.808,3.584 -23.04,-7.68 -31.232,-32.256 -9.216,-24.576 3.072,-49.664 12.288,-25.088 43.008,-37.376 27.648,-10.24 55.296,-5.12 l 0,-303.104 z"
       id="path4695"
       inkscape:connector-curvature="0" />
  </g>
</svg>
