<?xml version="1.0" encoding="UTF-8" standalone="no"?>
<svg xmlns="http://www.w3.org/2000/svg" width="512" height="512" viewBox="0 0 512 512" fill="#000000" version="1.1">
  <g transform="translate(36.881356,0)">
    <path d="m 103.899,438.784 26.112,-26.112 -67.072,-67.072 -26.112,26.112 0,30.72 36.352,0 0,36.352 30.72,0 z M 253.403,173.568 q 0,-6.144 -6.144,-6.144 -3.072,0 -4.608,2.048 L 88.027,324.096 q -2.048,2.048 -2.048,4.608 0,6.144 6.144,6.144 3.072,0 4.608,-2.048 L 251.355,178.176 q 2.048,-2.048 2.048,-4.608 z m -15.36,-54.784 118.784,118.784 -237.568,237.568 -118.784,0 0,-118.784 z m 195.072,27.648 q 0,15.36 -10.752,25.6 L 374.747,219.648 255.963,100.864 303.579,53.76 q 10.24,-10.752 25.6,-10.752 15.36,0 26.112,10.752 l 67.072,67.072 q 10.752,11.264 10.752,26.112 z" />
  </g>
</svg>
