<?xml version="1.0" encoding="UTF-8" standalone="no"?>
<!-- Generator: IcoMoon.io -->

<svg
   xmlns:dc="http://purl.org/dc/elements/1.1/"
   xmlns:cc="http://creativecommons.org/ns#"
   xmlns:rdf="http://www.w3.org/1999/02/22-rdf-syntax-ns#"
   xmlns:svg="http://www.w3.org/2000/svg"
   xmlns="http://www.w3.org/2000/svg"
   xmlns:sodipodi="http://sodipodi.sourceforge.net/DTD/sodipodi-0.dtd"
   xmlns:inkscape="http://www.inkscape.org/namespaces/inkscape"
   width="512"
   height="512"
   viewBox="0 0 512 512"
   fill="#000000"
   id="svg2"
   version="1.1"
   inkscape:version="0.48.2 r9819"
   sodipodi:docname="pencil.svg">
  <metadata
     id="metadata12">
    <rdf:RDF>
      <cc:Work
         rdf:about="">
        <dc:format>image/svg+xml</dc:format>
        <dc:type
           rdf:resource="http://purl.org/dc/dcmitype/StillImage" />
      </cc:Work>
    </rdf:RDF>
  </metadata>
  <defs
     id="defs10" />
  <sodipodi:namedview
     pagecolor="#ffffff"
     bordercolor="#666666"
     borderopacity="1"
     objecttolerance="10"
     gridtolerance="10"
     guidetolerance="10"
     inkscape:pageopacity="0"
     inkscape:pageshadow="2"
     inkscape:window-width="640"
     inkscape:window-height="480"
     id="namedview8"
     showgrid="false"
     inkscape:zoom="0.4609375"
     inkscape:cx="256"
     inkscape:cy="256"
     inkscape:window-x="0"
     inkscape:window-y="0"
     inkscape:window-maximized="0"
     inkscape:current-layer="svg2" />
  <g
     id="g4"
     transform="translate(36.881356,0)">
    <path
       d="m 103.899,438.784 26.112,-26.112 -67.072,-67.072 -26.112,26.112 0,30.72 36.352,0 0,36.352 30.72,0 z M 253.403,173.568 q 0,-6.144 -6.144,-6.144 -3.072,0 -4.608,2.048 L 88.027,324.096 q -2.048,2.048 -2.048,4.608 0,6.144 6.144,6.144 3.072,0 4.608,-2.048 L 251.355,178.176 q 2.048,-2.048 2.048,-4.608 z m -15.36,-54.784 118.784,118.784 -237.568,237.568 -118.784,0 0,-118.784 z m 195.072,27.648 q 0,15.36 -10.752,25.6 L 374.747,219.648 255.963,100.864 303.579,53.76 q 10.24,-10.752 25.6,-10.752 15.36,0 26.112,10.752 l 67.072,67.072 q 10.752,11.264 10.752,26.112 z"
       id="path6"
       inkscape:connector-curvature="0" />
  </g>
</svg>
