<?xml version="1.0" encoding="utf-8"?> <!-- Generator: IcoMoon.io --> <!DOCTYPE svg PUBLIC "-//W3C//DTD SVG 1.1//EN" "http://www.w3.org/Graphics/SVG/1.1/DTD/svg11.dtd"> <svg width="512" height="512" viewBox="0 0 512 512" xmlns="http://www.w3.org/2000/svg" xmlns:xlink="http://www.w3.org/1999/xlink" fill="#BFBFBF"><g><path d="M 112,0c 9,0 16,7 16,16l0,96 c0,9 -7,16 -16,16l-96,0 c-9,0 -16-7 -16-16l0-96 c0-9 7-16 16-16l 96,0 zM 112,192c 9,0 16,7 16,16l0,96 c0,9 -7,16 -16,16l-96,0 c-9,0 -16-7 -16-16l0-96 c0-9 7-16 16-16l 96,0 zM 112,384c 9,0 16,7 16,16l0,96 c0,9 -7,16 -16,16l-96,0 c-9,0 -16-7 -16-16l0-96 c0-9 7-16 16-16l 96,0 zM 304,0c 9,0 16,7 16,16l0,96 c0,9 -7,16 -16,16l-96,0 c-9,0 -16-7 -16-16l0-96 c0-9 7-16 16-16l 96,0 zM 304,192c 9,0 16,7 16,16l0,96 c0,9 -7,16 -16,16l-96,0 c-9,0 -16-7 -16-16l0-96 c0-9 7-16 16-16l 96,0 zM 304,384c 9,0 16,7 16,16l0,96 c0,9 -7,16 -16,16l-96,0 c-9,0 -16-7 -16-16l0-96 c0-9 7-16 16-16l 96,0 zM 496,0c 9,0 16,7 16,16l0,96 c0,9 -7,16 -16,16l-96,0 c-9,0 -16-7 -16-16l0-96 c0-9 7-16 16-16l 96,0 zM 496,192c 9,0 16,7 16,16l0,96 c0,9 -7,16 -16,16l-96,0 c-9,0 -16-7 -16-16l0-96 c0-9 7-16 16-16l 96,0 z M 496,384l-96,0 c-9,0 -16,7 -16,16l0,96 c0,9 7,16 16,16l 96,0 c 9,0 16-7 16-16l0-96 c0-9 -7-16 -16-16z"></path></g></svg>
