<?xml version="1.0" encoding="UTF-8" standalone="no"?>
<svg xmlns="http://www.w3.org/2000/svg" width="512" height="512" viewBox="0 0 512 512" fill="#FFFFFF" version="1.1">
  <g> 
    <path d="M 252.928,0 C 116.736,0 6.144,107.52 0,242.176 c -0.512,9.216 6.656,9.728 6.656,9.728 l 43.008,0 c 8.192,0 9.728,-4.608 10.24,-9.216 4.608,-101.888 89.6,-183.296 193.024,-183.296 55.296,0 104.96,23.04 140.288,60.416 l -30.208,29.184 c -5.12,6.144 -5.12,13.824 2.56,16.384 l 126.464,25.6 c 10.752,2.56 23.552,-5.632 19.456,-22.528 L 481.792,51.712 C 481.28,47.104 473.6,40.448 466.944,45.568 l -32.768,30.72 C 388.096,29.184 324.096,0.512 253.44,0.512 z m 209.92,260.608 c -8.192,0 -9.728,4.608 -10.24,9.216 -4.608,101.888 -89.6,183.296 -193.024,183.296 -55.296,0 -104.96,-23.04 -140.288,-60.416 l 30.208,-29.184 c 5.12,-6.144 5.12,-13.824 -2.56,-16.384 L 20.48,321.536 C 9.728,318.976 -3.072,327.168 1.024,344.064 L 30.72,460.8 c 0.512,4.608 8.192,11.264 14.848,6.144 l 32.768,-30.72 C 124.416,483.328 188.416,512 259.072,512 395.264,512 505.856,404.48 512,269.824 c 0.512,-9.216 -6.656,-9.728 -6.656,-9.728 l -43.008,0 z" />
  </g>
</svg>
