<?xml version="1.0" encoding="UTF-8" standalone="no"?>
<!-- Generator: IcoMoon.io -->

<svg
   xmlns:dc="http://purl.org/dc/elements/1.1/"
   xmlns:cc="http://creativecommons.org/ns#"
   xmlns:rdf="http://www.w3.org/1999/02/22-rdf-syntax-ns#"
   xmlns:svg="http://www.w3.org/2000/svg"
   xmlns="http://www.w3.org/2000/svg"
   xmlns:sodipodi="http://sodipodi.sourceforge.net/DTD/sodipodi-0.dtd"
   xmlns:inkscape="http://www.inkscape.org/namespaces/inkscape"
   width="518.656005859375"
   height="512"
   viewBox="0 0 518.656005859375 512"
   fill="#000000"
   id="svg4752"
   version="1.1"
   inkscape:version="0.48.2 r9819"
   sodipodi:docname="spin.svg">
  <metadata
     id="metadata4762">
    <rdf:RDF>
      <cc:Work
         rdf:about="">
        <dc:format>image/svg+xml</dc:format>
        <dc:type
           rdf:resource="http://purl.org/dc/dcmitype/StillImage" />
      </cc:Work>
    </rdf:RDF>
  </metadata>
  <defs
     id="defs4760" />
  <sodipodi:namedview
     pagecolor="#ffffff"
     bordercolor="#666666"
     borderopacity="1"
     objecttolerance="10"
     gridtolerance="10"
     guidetolerance="10"
     inkscape:pageopacity="0"
     inkscape:pageshadow="2"
     inkscape:window-width="744"
     inkscape:window-height="586"
     id="namedview4758"
     showgrid="false"
     inkscape:zoom="0.4609375"
     inkscape:cx="259.328"
     inkscape:cy="256"
     inkscape:window-x="41"
     inkscape:window-y="20"
     inkscape:window-maximized="0"
     inkscape:current-layer="svg4752" />
  <g
     id="g4754"
     transform="translate(4,0)">
    <path
       d="M 252.928,0 C 116.736,0 6.144,107.52 0,242.176 c -0.512,9.216 6.656,9.728 6.656,9.728 l 43.008,0 c 8.192,0 9.728,-4.608 10.24,-9.216 4.608,-101.888 89.6,-183.296 193.024,-183.296 55.296,0 104.96,23.04 140.288,60.416 l -30.208,29.184 c -5.12,6.144 -5.12,13.824 2.56,16.384 l 126.464,25.6 c 10.752,2.56 23.552,-5.632 19.456,-22.528 L 481.792,51.712 C 481.28,47.104 473.6,40.448 466.944,45.568 l -32.768,30.72 C 388.096,29.184 324.096,0.512 253.44,0.512 z m 209.92,260.608 c -8.192,0 -9.728,4.608 -10.24,9.216 -4.608,101.888 -89.6,183.296 -193.024,183.296 -55.296,0 -104.96,-23.04 -140.288,-60.416 l 30.208,-29.184 c 5.12,-6.144 5.12,-13.824 -2.56,-16.384 L 20.48,321.536 C 9.728,318.976 -3.072,327.168 1.024,344.064 L 30.72,460.8 c 0.512,4.608 8.192,11.264 14.848,6.144 l 32.768,-30.72 C 124.416,483.328 188.416,512 259.072,512 395.264,512 505.856,404.48 512,269.824 c 0.512,-9.216 -6.656,-9.728 -6.656,-9.728 l -43.008,0 z"
       id="path4756"
       inkscape:connector-curvature="0" />
  </g>
</svg>
