<?xml version="1.0" encoding="UTF-8" standalone="no"?>
<!-- Generator: IcoMoon.io -->

<svg
   xmlns:dc="http://purl.org/dc/elements/1.1/"
   xmlns:cc="http://creativecommons.org/ns#"
   xmlns:rdf="http://www.w3.org/1999/02/22-rdf-syntax-ns#"
   xmlns:svg="http://www.w3.org/2000/svg"
   xmlns="http://www.w3.org/2000/svg"
   xmlns:sodipodi="http://sodipodi.sourceforge.net/DTD/sodipodi-0.dtd"
   xmlns:inkscape="http://www.inkscape.org/namespaces/inkscape"
   width="512"
   height="512"
   viewBox="0 0 512 512"
   fill="#000000"
   id="svg4496"
   version="1.1"
   inkscape:version="0.48.2 r9819"
   sodipodi:docname="table.svg">
  <metadata
     id="metadata4506">
    <rdf:RDF>
      <cc:Work
         rdf:about="">
        <dc:format>image/svg+xml</dc:format>
        <dc:type
           rdf:resource="http://purl.org/dc/dcmitype/StillImage" />
      </cc:Work>
    </rdf:RDF>
  </metadata>
  <defs
     id="defs4504" />
  <sodipodi:namedview
     pagecolor="#ffffff"
     bordercolor="#666666"
     borderopacity="1"
     objecttolerance="10"
     gridtolerance="10"
     guidetolerance="10"
     inkscape:pageopacity="0"
     inkscape:pageshadow="2"
     inkscape:window-width="640"
     inkscape:window-height="480"
     id="namedview4502"
     showgrid="false"
     inkscape:zoom="0.4609375"
     inkscape:cx="256"
     inkscape:cy="256"
     inkscape:window-x="0"
     inkscape:window-y="0"
     inkscape:window-maximized="0"
     inkscape:current-layer="svg4496" />
  <g
     id="g4498"
     transform="translate(21.694915,19.355932)">
    <path
       d="m 146.286,393.216 0,-54.784 q 0,-4.096 -2.56,-6.656 -2.56,-2.56 -6.656,-2.56 l -91.648,0 q -4.096,0 -6.656,2.56 -2.56,2.56 -2.56,6.656 l 0,54.784 q 0,4.096 2.56,6.656 2.56,2.56 6.656,2.56 l 91.648,0 q 4.096,0 6.656,-2.56 2.56,-2.56 2.56,-6.656 z m 0,-109.568 0,-54.784 q 0,-4.096 -2.56,-6.656 -2.56,-2.56 -6.656,-2.56 l -91.648,0 q -4.096,0 -6.656,2.56 -2.56,2.56 -2.56,6.656 l 0,54.784 q 0,4.096 2.56,6.656 2.56,2.56 6.656,2.56 l 91.648,0 q 4.096,0 6.656,-2.56 2.56,-2.56 2.56,-6.656 z m 146.432,109.568 0,-54.784 q 0,-4.096 -2.56,-6.656 -2.56,-2.56 -6.656,-2.56 l -91.648,0 q -4.096,0 -6.656,2.56 -2.56,2.56 -2.56,6.656 l 0,54.784 q 0,4.096 2.56,6.656 2.56,2.56 6.656,2.56 l 91.648,0 q 4.096,0 6.656,-2.56 2.56,-2.56 2.56,-6.656 z m -146.432,-219.648 0,-54.784 q 0,-4.096 -2.56,-6.656 -2.56,-2.56 -6.656,-2.56 l -91.648,0 q -4.096,0 -6.656,2.56 -2.56,2.56 -2.56,6.656 l 0,54.784 q 0,4.096 2.56,6.656 2.56,2.56 6.656,2.56 l 91.648,0 q 4.096,0 6.656,-2.56 2.56,-2.56 2.56,-6.656 z m 146.432,109.568 0,-54.784 q 0,-4.096 -2.56,-6.656 -2.56,-2.56 -6.656,-2.56 l -91.648,0 q -4.096,0 -6.656,2.56 -2.56,2.56 -2.56,6.656 l 0,54.784 q 0,4.096 2.56,6.656 2.56,2.56 6.656,2.56 l 91.648,0 q 4.096,0 6.656,-2.56 2.56,-2.56 2.56,-6.656 z m 146.432,109.568 0,-54.784 q 0,-4.096 -2.56,-6.656 -2.56,-2.56 -6.656,-2.56 l -91.648,0 q -4.096,0 -6.656,2.56 -2.56,2.56 -2.56,6.656 l 0,54.784 q 0,4.096 2.56,6.656 2.56,2.56 6.656,2.56 l 91.648,0 q 4.096,0 6.656,-2.56 2.56,-2.56 2.56,-6.656 z m -146.432,-219.648 0,-54.784 q 0,-4.096 -2.56,-6.656 -2.56,-2.56 -6.656,-2.56 l -91.648,0 q -4.096,0 -6.656,2.56 -2.56,2.56 -2.56,6.656 l 0,54.784 q 0,4.096 2.56,6.656 2.56,2.56 6.656,2.56 l 91.648,0 q 4.096,0 6.656,-2.56 2.56,-2.56 2.56,-6.656 z m 146.432,109.568 0,-54.784 q 0,-4.096 -2.56,-6.656 -2.56,-2.56 -6.656,-2.56 l -91.648,0 q -4.096,0 -6.656,2.56 -2.56,2.56 -2.56,6.656 l 0,54.784 q 0,4.096 2.56,6.656 2.56,2.56 6.656,2.56 l 91.648,0 q 4.096,0 6.656,-2.56 2.56,-2.56 2.56,-6.656 z m 0,-109.568 0,-54.784 q 0,-4.096 -2.56,-6.656 -2.56,-2.56 -6.656,-2.56 l -91.648,0 q -4.096,0 -6.656,2.56 -2.56,2.56 -2.56,6.656 l 0,54.784 q 0,4.096 2.56,6.656 2.56,2.56 6.656,2.56 l 91.648,0 q 4.096,0 6.656,-2.56 2.56,-2.56 2.56,-6.656 z m 36.352,-91.648 0,310.784 q 0,18.944 -13.312,32.256 -13.312,13.312 -32.256,13.312 l -384,0 Q 26.99,437.76 13.678,424.448 0.366,411.136 0.366,392.192 l 0,-310.784 Q 0.366,62.464 13.678,49.152 26.99,35.84 45.934,35.84 l 384,0 q 18.944,0 32.256,13.312 13.312,13.312 13.312,32.256 z"
       id="path4500"
       inkscape:connector-curvature="0" />
  </g>
</svg>
