<?xml version="1.0" encoding="UTF-8" standalone="no"?>
<svg xmlns="http://www.w3.org/2000/svg" width="512" height="512" viewBox="0 0 512 512" fill="#000000" version="1.1">
  <g transform="translate(21.694915,19.355932)">
    <path d="m 146.286,393.216 0,-54.784 q 0,-4.096 -2.56,-6.656 -2.56,-2.56 -6.656,-2.56 l -91.648,0 q -4.096,0 -6.656,2.56 -2.56,2.56 -2.56,6.656 l 0,54.784 q 0,4.096 2.56,6.656 2.56,2.56 6.656,2.56 l 91.648,0 q 4.096,0 6.656,-2.56 2.56,-2.56 2.56,-6.656 z m 0,-109.568 0,-54.784 q 0,-4.096 -2.56,-6.656 -2.56,-2.56 -6.656,-2.56 l -91.648,0 q -4.096,0 -6.656,2.56 -2.56,2.56 -2.56,6.656 l 0,54.784 q 0,4.096 2.56,6.656 2.56,2.56 6.656,2.56 l 91.648,0 q 4.096,0 6.656,-2.56 2.56,-2.56 2.56,-6.656 z m 146.432,109.568 0,-54.784 q 0,-4.096 -2.56,-6.656 -2.56,-2.56 -6.656,-2.56 l -91.648,0 q -4.096,0 -6.656,2.56 -2.56,2.56 -2.56,6.656 l 0,54.784 q 0,4.096 2.56,6.656 2.56,2.56 6.656,2.56 l 91.648,0 q 4.096,0 6.656,-2.56 2.56,-2.56 2.56,-6.656 z m -146.432,-219.648 0,-54.784 q 0,-4.096 -2.56,-6.656 -2.56,-2.56 -6.656,-2.56 l -91.648,0 q -4.096,0 -6.656,2.56 -2.56,2.56 -2.56,6.656 l 0,54.784 q 0,4.096 2.56,6.656 2.56,2.56 6.656,2.56 l 91.648,0 q 4.096,0 6.656,-2.56 2.56,-2.56 2.56,-6.656 z m 146.432,109.568 0,-54.784 q 0,-4.096 -2.56,-6.656 -2.56,-2.56 -6.656,-2.56 l -91.648,0 q -4.096,0 -6.656,2.56 -2.56,2.56 -2.56,6.656 l 0,54.784 q 0,4.096 2.56,6.656 2.56,2.56 6.656,2.56 l 91.648,0 q 4.096,0 6.656,-2.56 2.56,-2.56 2.56,-6.656 z m 146.432,109.568 0,-54.784 q 0,-4.096 -2.56,-6.656 -2.56,-2.56 -6.656,-2.56 l -91.648,0 q -4.096,0 -6.656,2.56 -2.56,2.56 -2.56,6.656 l 0,54.784 q 0,4.096 2.56,6.656 2.56,2.56 6.656,2.56 l 91.648,0 q 4.096,0 6.656,-2.56 2.56,-2.56 2.56,-6.656 z m -146.432,-219.648 0,-54.784 q 0,-4.096 -2.56,-6.656 -2.56,-2.56 -6.656,-2.56 l -91.648,0 q -4.096,0 -6.656,2.56 -2.56,2.56 -2.56,6.656 l 0,54.784 q 0,4.096 2.56,6.656 2.56,2.56 6.656,2.56 l 91.648,0 q 4.096,0 6.656,-2.56 2.56,-2.56 2.56,-6.656 z m 146.432,109.568 0,-54.784 q 0,-4.096 -2.56,-6.656 -2.56,-2.56 -6.656,-2.56 l -91.648,0 q -4.096,0 -6.656,2.56 -2.56,2.56 -2.56,6.656 l 0,54.784 q 0,4.096 2.56,6.656 2.56,2.56 6.656,2.56 l 91.648,0 q 4.096,0 6.656,-2.56 2.56,-2.56 2.56,-6.656 z m 0,-109.568 0,-54.784 q 0,-4.096 -2.56,-6.656 -2.56,-2.56 -6.656,-2.56 l -91.648,0 q -4.096,0 -6.656,2.56 -2.56,2.56 -2.56,6.656 l 0,54.784 q 0,4.096 2.56,6.656 2.56,2.56 6.656,2.56 l 91.648,0 q 4.096,0 6.656,-2.56 2.56,-2.56 2.56,-6.656 z m 36.352,-91.648 0,310.784 q 0,18.944 -13.312,32.256 -13.312,13.312 -32.256,13.312 l -384,0 Q 26.99,437.76 13.678,424.448 0.366,411.136 0.366,392.192 l 0,-310.784 Q 0.366,62.464 13.678,49.152 26.99,35.84 45.934,35.84 l 384,0 q 18.944,0 32.256,13.312 13.312,13.312 13.312,32.256 z" />
  </g>
</svg>
