<?xml version="1.0" encoding="UTF-8" standalone="no"?>
<svg xmlns="http://www.w3.org/2000/svg" width="512" height="512" viewBox="0 0 512 512" fill="#000000" version="1.1">
  <g>
    <path d="M 460.8,51.2q 21.504,0 36.352,14.848t 14.848,36.352l0,307.2q0,20.48-14.848,35.84t-36.352,15.36l-409.6,0q-20.48,0-35.84-15.36t-15.36-35.84l0-307.2q0-21.504 15.36-36.352t 35.84-14.848l 409.6,0z m0,358.4l0-307.2-409.6,0 0,307.2 409.6,0z m-230.4-100.352l0,46.080-128,0 0-46.080 128,0z m0-76.8l0,46.080-128,0 0-46.080 128,0z m0-76.8l0,46.080-128,0 0-46.080 128,0z m 177.152,163.84l 2.048,35.84-128,0q0-35.84 3.072-35.84 43.008-11.264 43.008-33.792 0-8.192-13.824-28.672t-13.824-45.056q0-56.32 46.080-56.32t 46.080,56.32q0,24.576-14.336,45.056t-14.336,28.672q0,10.24 10.752,18.432t 22.016,11.264z" />
    </g>
</svg>
