<?xml version="1.0" encoding="UTF-8" standalone="no"?>
<!-- Generator: IcoMoon.io -->

<svg
   xmlns:dc="http://purl.org/dc/elements/1.1/"
   xmlns:cc="http://creativecommons.org/ns#"
   xmlns:rdf="http://www.w3.org/1999/02/22-rdf-syntax-ns#"
   xmlns:svg="http://www.w3.org/2000/svg"
   xmlns="http://www.w3.org/2000/svg"
   xmlns:sodipodi="http://sodipodi.sourceforge.net/DTD/sodipodi-0.dtd"
   xmlns:inkscape="http://www.inkscape.org/namespaces/inkscape"
   width="512"
   height="512"
   viewBox="0 0 512 512"
   fill="#000000"
   id="svg4368"
   version="1.1"
   inkscape:version="0.48.2 r9819"
   sodipodi:docname="video.svg">
  <metadata
     id="metadata4378">
    <rdf:RDF>
      <cc:Work
         rdf:about="">
        <dc:format>image/svg+xml</dc:format>
        <dc:type
           rdf:resource="http://purl.org/dc/dcmitype/StillImage" />
      </cc:Work>
    </rdf:RDF>
  </metadata>
  <defs
     id="defs4376" />
  <sodipodi:namedview
     pagecolor="#ffffff"
     bordercolor="#666666"
     borderopacity="1"
     objecttolerance="10"
     gridtolerance="10"
     guidetolerance="10"
     inkscape:pageopacity="0"
     inkscape:pageshadow="2"
     inkscape:window-width="640"
     inkscape:window-height="480"
     id="namedview4374"
     showgrid="false"
     inkscape:zoom="0.4609375"
     inkscape:cx="256"
     inkscape:cy="256"
     inkscape:window-x="0"
     inkscape:window-y="0"
     inkscape:window-maximized="0"
     inkscape:current-layer="svg4368" />
  <g
     id="g4370"
     transform="translate(6.5084746,-2.1694915)">
    <path
       d="m 501.76,128 -51.2,0 0,51.2 51.2,0 0,51.2 -51.2,0 0,51.2 51.2,0 0,51.2 -51.2,0 0,51.2 51.2,0 0,30.72 q 0,8.192 -6.144,14.336 -6.144,6.144 -14.336,6.144 l -460.8,0 q -8.192,0 -14.336,-6.144 Q 0,422.912 0,414.72 L 0,384 l 51.2,0 0,-51.2 -51.2,0 0,-51.2 51.2,0 0,-51.2 -51.2,0 0,-51.2 51.2,0 0,-51.2 L 0,128 0,97.28 Q 0,88.064 6.144,82.432 12.288,76.8 20.48,76.8 l 460.8,0 q 8.192,0 14.336,5.632 6.144,5.632 6.144,14.848 l 0,30.72 z m -307.2,204.8 128,-76.8 -128,-76.8 0,153.6 z"
       id="path4372"
       inkscape:connector-curvature="0" />
  </g>
</svg>
