<?xml version="1.0" encoding="UTF-8" standalone="no"?>
<!-- Generator: IcoMoon.io -->

<svg
   xmlns:dc="http://purl.org/dc/elements/1.1/"
   xmlns:cc="http://creativecommons.org/ns#"
   xmlns:rdf="http://www.w3.org/1999/02/22-rdf-syntax-ns#"
   xmlns:svg="http://www.w3.org/2000/svg"
   xmlns="http://www.w3.org/2000/svg"
   xmlns:sodipodi="http://sodipodi.sourceforge.net/DTD/sodipodi-0.dtd"
   xmlns:inkscape="http://www.inkscape.org/namespaces/inkscape"
   width="512"
   height="512"
   viewBox="0 0 512 512"
   fill="#000000"
   id="svg4313"
   version="1.1"
   inkscape:version="0.48.2 r9819"
   sodipodi:docname="videocam.svg">
  <metadata
     id="metadata4323">
    <rdf:RDF>
      <cc:Work
         rdf:about="">
        <dc:format>image/svg+xml</dc:format>
        <dc:type
           rdf:resource="http://purl.org/dc/dcmitype/StillImage" />
      </cc:Work>
    </rdf:RDF>
  </metadata>
  <defs
     id="defs4321" />
  <sodipodi:namedview
     pagecolor="#ffffff"
     bordercolor="#666666"
     borderopacity="1"
     objecttolerance="10"
     gridtolerance="10"
     guidetolerance="10"
     inkscape:pageopacity="0"
     inkscape:pageshadow="2"
     inkscape:window-width="640"
     inkscape:window-height="480"
     id="namedview4319"
     showgrid="false"
     inkscape:zoom="0.4609375"
     inkscape:cx="256"
     inkscape:cy="256"
     inkscape:window-x="0"
     inkscape:window-y="0"
     inkscape:window-maximized="0"
     inkscape:current-layer="svg4313" />
  <g
     id="g4315"
     transform="translate(2.1694915,17.355932)">
    <path
       d="M 0,315.513 0,144.045 Q 0,115.544 19.767,95.317 39.534,75.09 67.576,75.09 l 252.375,0 q 27.122,0 46.889,19.307 19.767,19.307 20.687,46.889 l 95.617,-61.14 q 11.493,-7.815 20.227,-2.758 8.734,5.057 8.275,19.767 l 0,265.706 q 0,15.17 -8.275,20.227 -8.275,5.057 -20.227,-2.758 l -95.617,-61.14 q -0.92,27.582 -20.687,46.889 -19.767,19.307 -46.889,19.307 l -252.375,0 q -28.042,0 -47.809,-20.227 Q 0,344.932 0,316.431 z M 292.369,153.239 q 0,8.275 5.976,14.251 5.976,5.976 14.251,5.976 8.275,0 14.251,-5.976 5.976,-5.976 5.976,-14.251 0,-8.275 -5.976,-14.251 -5.976,-5.976 -14.251,-5.976 -8.275,0 -14.251,5.976 -5.976,5.976 -5.976,14.251 z"
       id="path4317"
       inkscape:connector-curvature="0" />
  </g>
</svg>
