<?xml version="1.0" encoding="UTF-8" standalone="no"?>
<svg xmlns="http://www.w3.org/2000/svg" width="512" height="512" viewBox="0 0 512 512" fill="#000000" version="1.1">
  <g transform="translate(6.5084746,-2.1694915)">
    <path d="m 501.76,128 -51.2,0 0,51.2 51.2,0 0,51.2 -51.2,0 0,51.2 51.2,0 0,51.2 -51.2,0 0,51.2 51.2,0 0,30.72 q 0,8.192 -6.144,14.336 -6.144,6.144 -14.336,6.144 l -460.8,0 q -8.192,0 -14.336,-6.144 Q 0,422.912 0,414.72 L 0,384 l 51.2,0 0,-51.2 -51.2,0 0,-51.2 51.2,0 0,-51.2 -51.2,0 0,-51.2 51.2,0 0,-51.2 L 0,128 0,97.28 Q 0,88.064 6.144,82.432 12.288,76.8 20.48,76.8 l 460.8,0 q 8.192,0 14.336,5.632 6.144,5.632 6.144,14.848 l 0,30.72 z m -307.2,204.8 128,-76.8 -128,-76.8 0,153.6 z" />
  </g>
</svg>
