<?xml version="1.0" encoding="UTF-8" standalone="no"?>
<!-- Generator: IcoMoon.io -->

<svg
   xmlns:dc="http://purl.org/dc/elements/1.1/"
   xmlns:cc="http://creativecommons.org/ns#"
   xmlns:rdf="http://www.w3.org/1999/02/22-rdf-syntax-ns#"
   xmlns:svg="http://www.w3.org/2000/svg"
   xmlns="http://www.w3.org/2000/svg"
   xmlns:sodipodi="http://sodipodi.sourceforge.net/DTD/sodipodi-0.dtd"
   xmlns:inkscape="http://www.inkscape.org/namespaces/inkscape"
   width="512"
   height="512"
   viewBox="0 0 512 512"
   fill="#000000"
   id="svg4166"
   version="1.1"
   inkscape:version="0.48.2 r9819"
   sodipodi:docname="zoom-out.svg">
  <metadata
     id="metadata4176">
    <rdf:RDF>
      <cc:Work
         rdf:about="">
        <dc:format>image/svg+xml</dc:format>
        <dc:type
           rdf:resource="http://purl.org/dc/dcmitype/StillImage" />
      </cc:Work>
    </rdf:RDF>
  </metadata>
  <defs
     id="defs4174" />
  <sodipodi:namedview
     pagecolor="#ffffff"
     bordercolor="#666666"
     borderopacity="1"
     objecttolerance="10"
     gridtolerance="10"
     guidetolerance="10"
     inkscape:pageopacity="0"
     inkscape:pageshadow="2"
     inkscape:window-width="640"
     inkscape:window-height="480"
     id="namedview4172"
     showgrid="false"
     inkscape:zoom="0.4609375"
     inkscape:cx="256"
     inkscape:cy="256"
     inkscape:window-x="0"
     inkscape:window-y="0"
     inkscape:window-maximized="0"
     inkscape:current-layer="svg4166" />
  <g
     id="g4168"
     transform="translate(19.525424,-13.016949)">
    <path
       d="m 292.206,228.352 0,18.432 q 0,3.584 -2.56,6.656 -2.56,3.072 -6.656,2.56 l -164.352,0 q -3.584,0 -6.656,-2.56 -3.072,-2.56 -2.56,-6.656 l 0,-18.432 q 0,-3.584 2.56,-6.656 2.56,-3.072 6.656,-2.56 l 164.352,0 q 3.584,0 6.656,2.56 3.072,2.56 2.56,6.656 z m 36.352,9.216 q 0,-52.736 -37.376,-90.624 -37.376,-37.888 -90.624,-37.376 -53.248,0.512 -90.624,37.376 -37.376,36.864 -37.376,90.624 0,53.76 37.376,90.624 37.376,36.864 90.624,37.376 53.248,0.512 90.624,-37.376 37.376,-37.888 37.376,-90.624 z M 474.99,475.136 q 0,15.36 -10.752,25.6 -10.752,10.24 -25.6,10.752 -15.36,0 -25.6,-10.752 l -97.792,-97.792 q -51.2,35.328 -114.176,35.328 -40.96,0 -78.336,-15.872 Q 85.358,406.528 58.222,379.392 31.086,352.256 15.214,314.88 -0.658,277.504 -0.658,236.544 q 0,-40.96 15.872,-78.336 Q 31.086,120.832 58.222,93.696 85.358,66.56 122.734,50.688 160.11,34.816 201.07,34.816 q 40.96,0 78.336,15.872 37.376,15.872 64.512,43.008 27.136,27.136 43.008,64.512 15.872,37.376 15.872,78.336 0,62.976 -35.328,114.176 l 97.792,97.792 q 10.752,10.752 10.752,25.6 z"
       id="path4170"
       inkscape:connector-curvature="0" />
  </g>
</svg>
