<?xml version="1.0" encoding="UTF-8" standalone="no"?>
<svg xmlns="http://www.w3.org/2000/svg" width="650" height="650" viewBox="0 0 650 650" fill="#FFFFFF" version="1.1">
  <defs>
    <filter id="dropshadow" x="-20%" y="-20%" width="140%" height="140%">
      <feOffset result="offOut" in="SourceAlpha" dx="0" dy="40" />
      <feGaussianBlur result="blurOut" in="offOut" stdDeviation="30" />
      <feBlend in="SourceGraphic" in2="blurOut" mode="normal" />
    </filter>
  </defs>
  <g transform="translate(84, 36.5)">
    <path d="m 292.206,228.352 0,18.432 q 0,3.584 -2.56,6.656 -2.56,3.072 -6.656,2.56 l -64,0 0,64 q 0,3.584 -2.56,6.656 -2.56,3.072 -6.656,2.56 l -18.432,0 q -3.584,0 -6.656,-2.56 -3.072,-2.56 -2.56,-6.656 l 0,-64 -64,0 q -3.584,0 -6.656,-2.56 -3.072,-2.56 -2.56,-6.656 l 0,-18.432 q 0,-3.584 2.56,-6.656 2.56,-3.072 6.656,-2.56 l 64,0 0,-64 q 0,-3.584 2.56,-6.656 2.56,-3.072 6.656,-2.56 l 18.432,0 q 3.584,0 6.656,2.56 3.072,2.56 2.56,6.656 l 0,64 64,0 q 3.584,0 6.656,2.56 3.072,2.56 2.56,6.656 z m 36.352,9.216 q 0,-52.736 -37.376,-90.624 -37.376,-37.888 -90.624,-37.376 -53.248,0.512 -90.624,37.376 -37.376,36.864 -37.376,90.624 0,53.76 37.376,90.624 37.376,36.864 90.624,37.376 53.248,0.512 90.624,-37.376 37.376,-37.888 37.376,-90.624 z M 474.99,475.136 q 0,15.36 -10.752,25.6 -10.752,10.24 -25.6,10.752 -15.36,0 -25.6,-10.752 l -97.792,-97.792 q -51.2,35.328 -114.176,35.328 -40.96,0 -78.336,-15.872 Q 85.358,406.528 58.222,379.392 31.086,352.256 15.214,314.88 -0.658,277.504 -0.658,236.544 q 0,-40.96 15.872,-78.336 Q 31.086,120.832 58.222,93.696 85.358,66.56 122.734,50.688 160.11,34.816 201.07,34.816 q 40.96,0 78.336,15.872 37.376,15.872 64.512,43.008 27.136,27.136 43.008,64.512 15.872,37.376 15.872,78.336 0,62.976 -35.328,114.176 l 97.792,97.792 q 10.752,10.752 10.752,25.6 z" style="filter:url(#dropshadow)" />
  </g>
</svg>
